<svg width="16" height="16" viewBox="0 0 16 16" fill="none" xmlns="http://www.w3.org/2000/svg">
<path d="M8 0.5C7.86135 0.5 7.75959 0.554329 7.71643 0.579987C7.66511 0.610502 7.62447 0.644763 7.59669 0.670256C7.54054 0.721786 7.48798 0.783163 7.44232 0.840744C7.34854 0.959006 7.23781 1.12031 7.11626 1.3094C6.87101 1.69089 6.55408 2.22889 6.19442 2.86704C5.47381 4.14562 4.56741 5.85163 3.69338 7.57096C2.81964 9.28973 1.97459 11.029 1.37799 12.3733C1.0805 13.0436 0.840173 13.626 0.689179 14.0622C0.614569 14.2778 0.555564 14.4752 0.524918 14.6372C0.509937 14.7165 0.497272 14.8096 0.500517 14.9027C0.502888 14.9708 0.515499 15.1662 0.67163 15.3225C0.884065 15.5353 1.15216 15.5094 1.28041 15.4802C1.4185 15.4487 1.55009 15.3828 1.65907 15.3191C1.88392 15.1878 2.15181 14.9819 2.43557 14.7451C2.90499 14.3533 3.48027 13.8234 4.08001 13.2709C4.21152 13.1498 4.34419 13.0275 4.47719 12.9054C5.22553 12.2185 5.98957 11.5304 6.65575 11.0149C6.98916 10.7569 7.28585 10.5517 7.53472 10.4133C7.80045 10.2654 7.94735 10.2308 8 10.2308C8.05265 10.2308 8.19955 10.2654 8.46527 10.4133C8.71415 10.5517 9.01083 10.7569 9.34424 11.0149C10.0104 11.5304 10.7744 12.2185 11.5228 12.9054C11.6558 13.0275 11.7884 13.1497 11.9199 13.2708C12.5197 13.8233 13.095 14.3533 13.5644 14.7451C13.8482 14.9819 14.1161 15.1878 14.3409 15.3191C14.4499 15.3828 14.5815 15.4487 14.7196 15.4802C14.8478 15.5094 15.1159 15.5353 15.3283 15.3226C15.4845 15.1662 15.4971 14.9708 15.4995 14.9027C15.5027 14.8096 15.4901 14.7165 15.4751 14.6373C15.4444 14.4752 15.3854 14.2778 15.3108 14.0622C15.1598 13.626 14.9195 13.0436 14.622 12.3733C14.0254 11.029 13.1804 9.28974 12.3066 7.57097C11.4326 5.85164 10.5262 4.14563 9.80559 2.86705C9.44592 2.22889 9.12899 1.69089 8.88374 1.3094C8.76218 1.12031 8.65145 0.959006 8.55768 0.840743C8.51202 0.783163 8.45946 0.721786 8.40331 0.670256C8.37552 0.644763 8.33489 0.610502 8.28356 0.579987C8.24041 0.554329 8.13865 0.5 8 0.5Z" fill="#F4F4F4" stroke="#F4F4F4" stroke-linecap="round" stroke-linejoin="round"/>
</svg>
